# xmcd CD database file
#
# Track frame offsets:
#	150
#	6151
#	15087
#	39817
#	58342
#	77144
#	92743
#	105609
#	111010
#	142757
#	152770
#	160845
#	174402
#	182457
#	192818
#	201300
#	207683
#	220455
#	227290
#	232858
#	249382
#
# Disc length: 3449 seconds
#
# Revision: 1
# Processed by: cddbd v1.5.1PL2 Copyright (c) Steve Scherf et al.
# Submitted via: CDex 1.51
#
DISCID=040d7715
DTITLE=Ulster Orchestra - Fischer - Françaix Les bosquets de Cythère
DYEAR=2002
DGENRE=Ballett
TTITLE0=Les malheurs de Sophie - Tableau I - Allegro vivo
TTITLE1=Les malheurs de Sophie - Tableau I - dotted crochet =52
TTITLE2=Les malheurs de Sophie - Tableau I - Allegro
TTITLE3=Les malheurs de Sophie - Tableau II - Andante tranquillo
TTITLE4=Les malheurs de Sophie - Tableau II - Vivo assai
TTITLE5=Les malheurs de Sophie - Tableau III - Allegretto
TTITLE6=Les malheurs de Sophie - Tableau III - Pas de deux: entre Sophie et Paul
TTITLE7=Les malheurs de Sophie - Tableau III - Vivo
TTITLE8=Les malheurs de Sophie - Tableau III - Istesso tempo
TTITLE9=Les malheurs de Sophie - Tableau III - Subito vivo
TTITLE10=Concertino for Piano and Orchestra in F -I- Presto Leggiero
TTITLE11=Concertino for Piano and Orchestra in F -II- Lent
TTITLE12=Concertino for Piano and Orchestra in F -III- Allegretto
TTITLE13=Concertino for Piano and Orchestra in F -IV- Rondeau: Allegretto vivo
TTITLE14=Les bosquets de Cythère -I- Introduction à la vie joyeuse
TTITLE15=Les bosquets de Cythère -II- Aminte délaissée
TTITLE16=Les bosquets de Cythère -III- Le consolateur facétieux
TTITLE17=Les bosquets de Cythère -IV- Subtile tendresse
TTITLE18=Les bosquets de Cythère -V- Les larcins galants
TTITLE19=Les bosquets de Cythère -VI- La belle Damnée de Chez Maxim's
TTITLE20=Les bosquets de Cythère -VII- Les amours ont chassé l'amour
EXTD=YEAR: 2002
EXTT0=
EXTT1=
EXTT2=
EXTT3=
EXTT4=
EXTT5=
EXTT6=
EXTT7=
EXTT8=
EXTT9=
EXTT10=
EXTT11=
EXTT12=
EXTT13=
EXTT14=
EXTT15=
EXTT16=
EXTT17=
EXTT18=
EXTT19=
EXTT20=
PLAYORDER=
